# xmcd
#
# Track frame offsets: 
#        300
#        17521
#        37730
#        47409
#        60447
#        77326
#        91753
#        114957
#        132827
#        153184
#        167791
#        192144
#
# Disc length: 3865 seconds
#
# Revision: 0
# Processed by: cddbd v1.5.2PL0 Copyright (c) Steve Scherf et al.
# Submitted via: ExactAudioCopy v0.99pb5
#
DISCID=780f150c
DTITLE=Jay McShann - Hootie's Jumpin' Blues
DYEAR=1997
DGENRE=Blues
TTITLE0=Hootie Blues
TTITLE1=Vine Street Boogie
TTITLE2='Fore Day Rider
TTITLE3=Hands Off
TTITLE4=Profoundly Blue
TTITLE5=Doo Wah Doo
TTITLE6=I Want A Little Girl
TTITLE7=Jumpin' The Blues
TTITLE8=Confessin' The Blues
TTITLE9=Hootie Ignorant Oil
TTITLE10=Hootie Blues for Big Miller
TTITLE11=Interview and Solo Piano
EXTD=
EXTT0=
EXTT1=
EXTT2=
EXTT3=
EXTT4=
EXTT5=
EXTT6=
EXTT7=
EXTT8=
EXTT9=
EXTT10=
EXTT11=
PLAYORDER=
